<svg width="49" height="47" viewBox="0 0 49 47" fill="none" xmlns="http://www.w3.org/2000/svg">
<g clip-path="url(#clip0_1_2)">
<path d="M15.9101 44.245C14.3759 43.5971 12.9176 42.7822 11.5619 41.815L0.935944 45.533L5.51089 35.417C4.8496 34.37 4.27524 33.2707 3.79312 32.13C2.60678 29.3264 1.99825 26.3123 2.00406 23.268C1.99825 20.2237 2.60678 17.2096 3.79312 14.406C4.93617 11.7006 6.59337 9.24283 8.673 7.169C10.7469 5.08971 13.2048 3.43273 15.9101 2.29C18.7133 1.10356 21.727 0.495077 24.7709 0.501C27.8152 0.49497 30.8294 1.10345 33.633 2.29C36.3383 3.43276 38.7961 5.08973 40.87 7.169C42.9491 9.24329 44.6062 11.701 45.7499 14.406C46.936 17.2096 47.5443 20.2238 47.538 23.268C47.5443 26.3122 46.936 29.3264 45.7499 32.13C44.6062 34.835 42.9491 37.2927 40.87 39.367C38.7961 41.4463 36.3383 43.1032 33.633 44.246C30.8294 45.4325 27.8152 46.041 24.7709 46.035C21.7269 46.0406 18.7132 45.4318 15.9101 44.245Z" fill="#FEC62E" stroke="black"/>
<path d="M15.772 25.767C17.1527 25.767 18.272 24.6477 18.272 23.267C18.272 21.8863 17.1527 20.767 15.772 20.767C14.3913 20.767 13.272 21.8863 13.272 23.267C13.272 24.6477 14.3913 25.767 15.772 25.767Z" fill="black"/>
<path d="M15.772 25.267C16.8766 25.267 17.772 24.3716 17.772 23.267C17.772 22.1624 16.8766 21.267 15.772 21.267C14.6674 21.267 13.772 22.1624 13.772 23.267C13.772 24.3716 14.6674 25.267 15.772 25.267Z" stroke="black"/>
<path d="M24.772 25.767C26.1527 25.767 27.272 24.6477 27.272 23.267C27.272 21.8863 26.1527 20.767 24.772 20.767C23.3913 20.767 22.272 21.8863 22.272 23.267C22.272 24.6477 23.3913 25.767 24.772 25.767Z" fill="black"/>
<path d="M24.772 25.267C25.8766 25.267 26.772 24.3716 26.772 23.267C26.772 22.1624 25.8766 21.267 24.772 21.267C23.6674 21.267 22.772 22.1624 22.772 23.267C22.772 24.3716 23.6674 25.267 24.772 25.267Z" stroke="black"/>
<path d="M33.772 25.767C35.1527 25.767 36.272 24.6477 36.272 23.267C36.272 21.8863 35.1527 20.767 33.772 20.767C32.3913 20.767 31.272 21.8863 31.272 23.267C31.272 24.6477 32.3913 25.767 33.772 25.767Z" fill="black"/>
<path d="M33.772 25.267C34.8766 25.267 35.772 24.3716 35.772 23.267C35.772 22.1624 34.8766 21.267 33.772 21.267C32.6674 21.267 31.772 22.1624 31.772 23.267C31.772 24.3716 32.6674 25.267 33.772 25.267Z" stroke="black"/>
</g>
<defs>
<clipPath id="clip0_1_2">
<rect width="48.039" height="46.535" fill="white"/>
</clipPath>
</defs>
</svg>
